<?xml version="1.0" encoding="UTF-8" standalone="no"?><svg xmlns="http://www.w3.org/2000/svg" xmlns:xlink="http://www.w3.org/1999/xlink" clip-rule="evenodd" stroke-miterlimit="10" viewBox="0 0 1364 767"><desc>SVG generated by Keynote</desc><defs></defs><g transform="matrix(1.00, 0.00, -0.00, -1.00, 0.0, 767.0)"><g><clipPath id="clip0x7fcafe990970"><path d="M 0.0 767.0 L 1364.0 767.0 L 1364.0 0.0 L 0.0 0.0 Z M 0.0 767.0 "></path></clipPath><g clip-path="url(#clip0x7fcafe990970)"><image xlink:href="../../4685E834-C4F7-4115-BA6D-793B14BD73C9/assets/AF0C68BC92A376DA461E54F09C08CB42.png" width="1365.00" height="768.00" transform="matrix(1.00, 0.00, -0.00, -1.00, 0.0, 767.0)"></image></g></g><text xml:space="preserve" font-family="ArialMT,Arial" font-size="60.0" fill="#FFFFFF" transform="matrix(1.00, 0.00, -0.00, -1.00, 72.7, 371.3)">T</text><text xml:space="preserve" font-family="ArialMT,Arial" font-size="60.0" fill="#FFFFFF" transform="matrix(1.00, 0.00, -0.00, -1.00, 109.4, 371.3)">h</text><text xml:space="preserve" font-family="ArialMT,Arial" font-size="60.0" fill="#FFFFFF" transform="matrix(1.00, 0.00, -0.00, -1.00, 142.8, 371.3)">e</text><text xml:space="preserve" font-family="ArialMT,Arial" font-size="60.0" fill="#FFFFFF" transform="matrix(1.00, 0.00, -0.00, -1.00, 176.1, 371.3)"> </text><text xml:space="preserve" font-family="ArialMT,Arial" font-size="60.0" fill="#FFFFFF" transform="matrix(1.00, 0.00, -0.00, -1.00, 192.8, 371.3)">N</text><text xml:space="preserve" font-family="ArialMT,Arial" font-size="60.0" fill="#FFFFFF" transform="matrix(1.00, 0.00, -0.00, -1.00, 236.1, 371.3)">e</text><text xml:space="preserve" font-family="ArialMT,Arial" font-size="60.0" fill="#FFFFFF" transform="matrix(1.00, 0.00, -0.00, -1.00, 269.5, 371.3)">w</text><text xml:space="preserve" font-family="ArialMT,Arial" font-size="60.0" fill="#FFFFFF" transform="matrix(1.00, 0.00, -0.00, -1.00, 312.9, 371.3)"> </text><text xml:space="preserve" font-family="ArialMT,Arial" font-size="60.0" fill="#FFFFFF" transform="matrix(1.00, 0.00, -0.00, -1.00, 326.2, 371.3)">A</text><text xml:space="preserve" font-family="ArialMT,Arial" font-size="60.0" fill="#FFFFFF" transform="matrix(1.00, 0.00, -0.00, -1.00, 366.2, 371.3)">n</text><text xml:space="preserve" font-family="ArialMT,Arial" font-size="60.0" fill="#FFFFFF" transform="matrix(1.00, 0.00, -0.00, -1.00, 399.6, 371.3)">a</text><text xml:space="preserve" font-family="ArialMT,Arial" font-size="60.0" fill="#FFFFFF" transform="matrix(1.00, 0.00, -0.00, -1.00, 433.0, 371.3)">l</text><text xml:space="preserve" font-family="ArialMT,Arial" font-size="60.0" fill="#FFFFFF" transform="matrix(1.00, 0.00, -0.00, -1.00, 446.3, 371.3)">y</text><text xml:space="preserve" font-family="ArialMT,Arial" font-size="60.0" fill="#FFFFFF" transform="matrix(1.00, 0.00, -0.00, -1.00, 476.3, 371.3)">t</text><text xml:space="preserve" font-family="ArialMT,Arial" font-size="60.0" fill="#FFFFFF" transform="matrix(1.00, 0.00, -0.00, -1.00, 493.0, 371.3)">i</text><text xml:space="preserve" font-family="ArialMT,Arial" font-size="60.0" fill="#FFFFFF" transform="matrix(1.00, 0.00, -0.00, -1.00, 506.3, 371.3)">c</text><text xml:space="preserve" font-family="ArialMT,Arial" font-size="60.0" fill="#FFFFFF" transform="matrix(1.00, 0.00, -0.00, -1.00, 536.3, 371.3)">s</text><text xml:space="preserve" font-family="ArialMT,Arial" font-size="60.0" fill="#FFFFFF" transform="matrix(1.00, 0.00, -0.00, -1.00, 566.3, 371.3)"> </text><text xml:space="preserve" font-family="ArialMT,Arial" font-size="60.0" fill="#FFFFFF" transform="matrix(1.00, 0.00, -0.00, -1.00, 579.7, 371.3)">A</text><text xml:space="preserve" font-family="ArialMT,Arial" font-size="60.0" fill="#FFFFFF" transform="matrix(1.00, 0.00, -0.00, -1.00, 619.7, 371.3)">P</text><text xml:space="preserve" font-family="ArialMT,Arial" font-size="60.0" fill="#FFFFFF" transform="matrix(1.00, 0.00, -0.00, -1.00, 659.7, 371.3)">I</text></g></svg>