<?xml version="1.0" encoding="UTF-8" standalone="no"?><svg xmlns="http://www.w3.org/2000/svg" xmlns:xlink="http://www.w3.org/1999/xlink" clip-rule="evenodd" stroke-miterlimit="10" viewBox="0 0 1364 767"><desc>SVG generated by Keynote</desc><defs></defs><g transform="matrix(1.00, 0.00, -0.00, -1.00, 0.0, 767.0)"><g><clipPath id="clip0x7feae9ea2e80"><path d="M 0.0 767.0 L 1364.0 767.0 L 1364.0 0.0 L 0.0 0.0 Z M 0.0 767.0 "></path></clipPath><g clip-path="url(#clip0x7feae9ea2e80)"><image xlink:href="AB9F8195FDBA918904BB067773ECACBB.png" width="3000.00" height="1692.00" transform="matrix(0.45, 0.00, -0.00, -0.45, 0.0, 767.0)"></image></g></g><image xlink:href="D0DFEF5AAC115BA27FBEBE65E09AEE21.png" width="653.00" height="159.00" transform="matrix(0.44, 0.00, -0.00, -0.44, 79.9, 685.1)"></image><g><clipPath id="clip0x7feae9ea3fe0"><path d="M 55.1 349.8 L 1309.3 349.8 L 1309.3 470.6 L 55.1 470.6 Z M 55.1 349.8 "></path></clipPath><g clip-path="url(#clip0x7feae9ea3fe0)"><text xml:space="preserve" font-family="Arial-BoldMT,Arial" font-weight="bold" font-size="60.0" fill="#585858" transform="matrix(1.00, 0.00, -0.00, -1.00, 71.9, 362.3)">B</text><text xml:space="preserve" font-family="Arial-BoldMT,Arial" font-weight="bold" font-size="60.0" fill="#585858" transform="matrix(1.00, 0.00, -0.00, -1.00, 115.2, 362.3)">r</text><text xml:space="preserve" font-family="Arial-BoldMT,Arial" font-weight="bold" font-size="60.0" fill="#585858" transform="matrix(1.00, 0.00, -0.00, -1.00, 138.6, 362.3)">i</text><text xml:space="preserve" font-family="Arial-BoldMT,Arial" font-weight="bold" font-size="60.0" fill="#585858" transform="matrix(1.00, 0.00, -0.00, -1.00, 155.2, 362.3)">g</text><text xml:space="preserve" font-family="Arial-BoldMT,Arial" font-weight="bold" font-size="60.0" fill="#585858" transform="matrix(1.00, 0.00, -0.00, -1.00, 191.9, 362.3)">h</text><text xml:space="preserve" font-family="Arial-BoldMT,Arial" font-weight="bold" font-size="60.0" fill="#585858" transform="matrix(1.00, 0.00, -0.00, -1.00, 228.5, 362.3)">t</text><text xml:space="preserve" font-family="Arial-BoldMT,Arial" font-weight="bold" font-size="60.0" fill="#585858" transform="matrix(1.00, 0.00, -0.00, -1.00, 248.5, 362.3)">c</text><text xml:space="preserve" font-family="Arial-BoldMT,Arial" font-weight="bold" font-size="60.0" fill="#585858" transform="matrix(1.00, 0.00, -0.00, -1.00, 281.9, 362.3)">o</text><text xml:space="preserve" font-family="Arial-BoldMT,Arial" font-weight="bold" font-size="60.0" fill="#585858" transform="matrix(1.00, 0.00, -0.00, -1.00, 318.5, 362.3)">v</text><text xml:space="preserve" font-family="Arial-BoldMT,Arial" font-weight="bold" font-size="60.0" fill="#585858" transform="matrix(1.00, 0.00, -0.00, -1.00, 351.9, 362.3)">e</text><text xml:space="preserve" font-family="Arial-BoldMT,Arial" font-weight="bold" font-size="60.0" fill="#585858" transform="matrix(1.00, 0.00, -0.00, -1.00, 385.3, 362.3)"> </text><text xml:space="preserve" font-family="Arial-BoldMT,Arial" font-weight="bold" font-size="60.0" fill="#585858" transform="matrix(1.00, 0.00, -0.00, -1.00, 399.7, 362.3)">A</text><text xml:space="preserve" font-family="Arial-BoldMT,Arial" font-weight="bold" font-size="60.0" fill="#585858" transform="matrix(1.00, 0.00, -0.00, -1.00, 443.0, 362.3)">n</text><text xml:space="preserve" font-family="Arial-BoldMT,Arial" font-weight="bold" font-size="60.0" fill="#585858" transform="matrix(1.00, 0.00, -0.00, -1.00, 479.7, 362.3)">a</text><text xml:space="preserve" font-family="Arial-BoldMT,Arial" font-weight="bold" font-size="60.0" fill="#585858" transform="matrix(1.00, 0.00, -0.00, -1.00, 513.0, 362.3)">l</text><text xml:space="preserve" font-family="Arial-BoldMT,Arial" font-weight="bold" font-size="60.0" fill="#585858" transform="matrix(1.00, 0.00, -0.00, -1.00, 529.7, 362.3)">y</text><text xml:space="preserve" font-family="Arial-BoldMT,Arial" font-weight="bold" font-size="60.0" fill="#585858" transform="matrix(1.00, 0.00, -0.00, -1.00, 563.1, 362.3)">t</text><text xml:space="preserve" font-family="Arial-BoldMT,Arial" font-weight="bold" font-size="60.0" fill="#585858" transform="matrix(1.00, 0.00, -0.00, -1.00, 583.1, 362.3)">i</text><text xml:space="preserve" font-family="Arial-BoldMT,Arial" font-weight="bold" font-size="60.0" fill="#585858" transform="matrix(1.00, 0.00, -0.00, -1.00, 599.7, 362.3)">c</text><text xml:space="preserve" font-family="Arial-BoldMT,Arial" font-weight="bold" font-size="60.0" fill="#585858" transform="matrix(1.00, 0.00, -0.00, -1.00, 633.1, 362.3)">s</text><text xml:space="preserve" font-family="Arial-BoldMT,Arial" font-weight="bold" font-size="60.0" fill="#585858" transform="matrix(1.00, 0.00, -0.00, -1.00, 666.5, 362.3)"> </text><text xml:space="preserve" font-family="Arial-BoldMT,Arial" font-weight="bold" font-size="60.0" fill="#585858" transform="matrix(1.00, 0.00, -0.00, -1.00, 680.9, 362.3)">A</text><text xml:space="preserve" font-family="Arial-BoldMT,Arial" font-weight="bold" font-size="60.0" fill="#585858" transform="matrix(1.00, 0.00, -0.00, -1.00, 724.3, 362.3)">P</text><text xml:space="preserve" font-family="Arial-BoldMT,Arial" font-weight="bold" font-size="60.0" fill="#585858" transform="matrix(1.00, 0.00, -0.00, -1.00, 764.3, 362.3)">I</text></g></g><text xml:space="preserve" font-family="ArialMT,Arial" font-size="24.0" fill="#7E7E7E" transform="matrix(1.00, 0.00, -0.00, -1.00, 98.9, 320.6)">R</text><text xml:space="preserve" font-family="ArialMT,Arial" font-size="24.0" fill="#7E7E7E" transform="matrix(1.00, 0.00, -0.00, -1.00, 116.2, 320.6)">o</text><text xml:space="preserve" font-family="ArialMT,Arial" font-size="24.0" fill="#7E7E7E" transform="matrix(1.00, 0.00, -0.00, -1.00, 129.5, 320.6)">b</text><text xml:space="preserve" font-family="ArialMT,Arial" font-size="24.0" fill="#7E7E7E" transform="matrix(1.00, 0.00, -0.00, -1.00, 142.9, 320.6)">e</text><text xml:space="preserve" font-family="ArialMT,Arial" font-size="24.0" fill="#7E7E7E" transform="matrix(1.00, 0.00, -0.00, -1.00, 156.2, 320.6)">r</text><text xml:space="preserve" font-family="ArialMT,Arial" font-size="24.0" fill="#7E7E7E" transform="matrix(1.00, 0.00, -0.00, -1.00, 164.2, 320.6)">t</text><text xml:space="preserve" font-family="ArialMT,Arial" font-size="24.0" fill="#7E7E7E" transform="matrix(1.00, 0.00, -0.00, -1.00, 170.9, 320.6)"> </text><text xml:space="preserve" font-family="ArialMT,Arial" font-size="24.0" fill="#7E7E7E" transform="matrix(1.00, 0.00, -0.00, -1.00, 177.6, 320.6)">C</text><text xml:space="preserve" font-family="ArialMT,Arial" font-size="24.0" fill="#7E7E7E" transform="matrix(1.00, 0.00, -0.00, -1.00, 194.9, 320.6)">r</text><text xml:space="preserve" font-family="ArialMT,Arial" font-size="24.0" fill="#7E7E7E" transform="matrix(1.00, 0.00, -0.00, -1.00, 202.9, 320.6)">o</text><text xml:space="preserve" font-family="ArialMT,Arial" font-size="24.0" fill="#7E7E7E" transform="matrix(1.00, 0.00, -0.00, -1.00, 216.2, 320.6)">o</text><text xml:space="preserve" font-family="ArialMT,Arial" font-size="24.0" fill="#7E7E7E" transform="matrix(1.00, 0.00, -0.00, -1.00, 229.6, 320.6)">k</text><text xml:space="preserve" font-family="ArialMT,Arial" font-size="24.0" fill="#7E7E7E" transform="matrix(1.00, 0.00, -0.00, -1.00, 241.6, 320.6)">s</text><text xml:space="preserve" font-family="ArialMT,Arial" font-size="24.0" fill="#7E7E7E" transform="matrix(1.00, 0.00, -0.00, -1.00, 253.6, 320.6)"> </text></g></svg>