<?xml version="1.0" encoding="UTF-8" standalone="no"?><svg xmlns="http://www.w3.org/2000/svg" xmlns:xlink="http://www.w3.org/1999/xlink" clip-rule="evenodd" stroke-miterlimit="10" viewBox="0 0 1364 767"><desc>SVG generated by Keynote</desc><defs></defs><g transform="matrix(1.00, 0.00, -0.00, -1.00, 0.0, 767.0)"><g><clipPath id="clip0x7fcf0611b5a0"><path d="M 0.0 767.0 L 1364.0 767.0 L 1364.0 0.0 L 0.0 0.0 Z M 0.0 767.0 "></path></clipPath><g clip-path="url(#clip0x7fcf0611b5a0)"><image xlink:href="../../FF7AB0DB-EDA1-43D3-8A4A-4930C070EBE5/assets/25969E1291D5F00AC5A6775BAD7E2D8B.png" width="1365.00" height="768.00" transform="matrix(1.00, 0.00, -0.00, -1.00, 0.0, 767.0)"></image></g></g><text xml:space="preserve" font-family="ArialMT,Arial" font-size="14.0" fill="#FAFCFF" transform="matrix(1.00, 0.00, -0.00, -1.00, 1139.2, 15.1)">©</text><text xml:space="preserve" font-family="ArialMT,Arial" font-size="14.0" fill="#FAFCFF" transform="matrix(1.00, 0.00, -0.00, -1.00, 1149.5, 15.1)"> </text><text xml:space="preserve" font-family="ArialMT,Arial" font-size="14.0" fill="#FAFCFF" transform="matrix(1.00, 0.00, -0.00, -1.00, 1153.4, 15.1)">2</text><text xml:space="preserve" font-family="ArialMT,Arial" font-size="14.0" fill="#FAFCFF" transform="matrix(1.00, 0.00, -0.00, -1.00, 1161.2, 15.1)">0</text><text xml:space="preserve" font-family="ArialMT,Arial" font-size="14.0" fill="#FAFCFF" transform="matrix(1.00, 0.00, -0.00, -1.00, 1169.0, 15.1)">1</text><text xml:space="preserve" font-family="ArialMT,Arial" font-size="14.0" fill="#FAFCFF" transform="matrix(1.00, 0.00, -0.00, -1.00, 1176.8, 15.1)">2</text><text xml:space="preserve" font-family="ArialMT,Arial" font-size="14.0" fill="#FAFCFF" transform="matrix(1.00, 0.00, -0.00, -1.00, 1184.6, 15.1)"> </text><text xml:space="preserve" font-family="ArialMT,Arial" font-size="14.0" fill="#FAFCFF" transform="matrix(1.00, 0.00, -0.00, -1.00, 1188.5, 15.1)">B</text><text xml:space="preserve" font-family="ArialMT,Arial" font-size="14.0" fill="#FAFCFF" transform="matrix(1.00, 0.00, -0.00, -1.00, 1197.8, 15.1)">r</text><text xml:space="preserve" font-family="ArialMT,Arial" font-size="14.0" fill="#FAFCFF" transform="matrix(1.00, 0.00, -0.00, -1.00, 1202.5, 15.1)">i</text><text xml:space="preserve" font-family="ArialMT,Arial" font-size="14.0" fill="#FAFCFF" transform="matrix(1.00, 0.00, -0.00, -1.00, 1205.6, 15.1)">g</text><text xml:space="preserve" font-family="ArialMT,Arial" font-size="14.0" fill="#FAFCFF" transform="matrix(1.00, 0.00, -0.00, -1.00, 1213.4, 15.1)">h</text><text xml:space="preserve" font-family="ArialMT,Arial" font-size="14.0" fill="#FAFCFF" transform="matrix(1.00, 0.00, -0.00, -1.00, 1221.2, 15.1)">t</text><text xml:space="preserve" font-family="ArialMT,Arial" font-size="14.0" fill="#FAFCFF" transform="matrix(1.00, 0.00, -0.00, -1.00, 1225.0, 15.1)">c</text><text xml:space="preserve" font-family="ArialMT,Arial" font-size="14.0" fill="#FAFCFF" transform="matrix(1.00, 0.00, -0.00, -1.00, 1232.0, 15.1)">o</text><text xml:space="preserve" font-family="ArialMT,Arial" font-size="14.0" fill="#FAFCFF" transform="matrix(1.00, 0.00, -0.00, -1.00, 1239.8, 15.1)">v</text><text xml:space="preserve" font-family="ArialMT,Arial" font-size="14.0" fill="#FAFCFF" transform="matrix(1.00, 0.00, -0.00, -1.00, 1246.8, 15.1)">e</text><text xml:space="preserve" font-family="ArialMT,Arial" font-size="14.0" fill="#FAFCFF" transform="matrix(1.00, 0.00, -0.00, -1.00, 1254.6, 15.1)"> </text><text xml:space="preserve" font-family="ArialMT,Arial" font-size="14.0" fill="#FAFCFF" transform="matrix(1.00, 0.00, -0.00, -1.00, 1258.5, 15.1)">I</text><text xml:space="preserve" font-family="ArialMT,Arial" font-size="14.0" fill="#FAFCFF" transform="matrix(1.00, 0.00, -0.00, -1.00, 1262.4, 15.1)">n</text><text xml:space="preserve" font-family="ArialMT,Arial" font-size="14.0" fill="#FAFCFF" transform="matrix(1.00, 0.00, -0.00, -1.00, 1270.2, 15.1)">c</text><text xml:space="preserve" font-family="ArialMT,Arial" font-size="14.0" fill="#FAFCFF" transform="matrix(1.00, 0.00, -0.00, -1.00, 1277.2, 15.1)">.</text><text xml:space="preserve" font-family="Arial-BoldMT,Arial" font-weight="bold" font-size="36.0" fill="#606163" transform="matrix(1.00, 0.00, -0.00, -1.00, 67.2, 674.1)">A</text><text xml:space="preserve" font-family="Arial-BoldMT,Arial" font-weight="bold" font-size="36.0" fill="#606163" transform="matrix(1.00, 0.00, -0.00, -1.00, 93.2, 674.1)">G</text><text xml:space="preserve" font-family="Arial-BoldMT,Arial" font-weight="bold" font-size="36.0" fill="#606163" transform="matrix(1.00, 0.00, -0.00, -1.00, 121.2, 674.1)">E</text><text xml:space="preserve" font-family="Arial-BoldMT,Arial" font-weight="bold" font-size="36.0" fill="#606163" transform="matrix(1.00, 0.00, -0.00, -1.00, 145.2, 674.1)">N</text><text xml:space="preserve" font-family="Arial-BoldMT,Arial" font-weight="bold" font-size="36.0" fill="#606163" transform="matrix(1.00, 0.00, -0.00, -1.00, 171.2, 674.1)">D</text><text xml:space="preserve" font-family="Arial-BoldMT,Arial" font-weight="bold" font-size="36.0" fill="#606163" transform="matrix(1.00, 0.00, -0.00, -1.00, 197.2, 674.1)">A</text><image xlink:href="../../FF7AB0DB-EDA1-43D3-8A4A-4930C070EBE5/assets/73B71C8ED8B327BC33250931A9406AA1.png" width="11.00" height="13.00" transform="matrix(1.65, 0.00, -0.00, -1.65, 48.7, 607.3)"></image><text xml:space="preserve" font-family="ArialMT,Arial" font-size="24.0" fill="#606163" transform="matrix(1.00, 0.00, -0.00, -1.00, 70.2, 588.3)">T</text><text xml:space="preserve" font-family="ArialMT,Arial" font-size="24.0" fill="#606163" transform="matrix(1.00, 0.00, -0.00, -1.00, 84.9, 588.3)">h</text><text xml:space="preserve" font-family="ArialMT,Arial" font-size="24.0" fill="#606163" transform="matrix(1.00, 0.00, -0.00, -1.00, 98.2, 588.3)">e</text><text xml:space="preserve" font-family="ArialMT,Arial" font-size="24.0" fill="#606163" transform="matrix(1.00, 0.00, -0.00, -1.00, 111.6, 588.3)"> </text><text xml:space="preserve" font-family="ArialMT,Arial" font-size="24.0" fill="#606163" transform="matrix(1.00, 0.00, -0.00, -1.00, 116.9, 588.3)">A</text><text xml:space="preserve" font-family="ArialMT,Arial" font-size="24.0" fill="#606163" transform="matrix(1.00, 0.00, -0.00, -1.00, 132.9, 588.3)">n</text><text xml:space="preserve" font-family="ArialMT,Arial" font-size="24.0" fill="#606163" transform="matrix(1.00, 0.00, -0.00, -1.00, 146.3, 588.3)">a</text><text xml:space="preserve" font-family="ArialMT,Arial" font-size="24.0" fill="#606163" transform="matrix(1.00, 0.00, -0.00, -1.00, 159.6, 588.3)">l</text><text xml:space="preserve" font-family="ArialMT,Arial" font-size="24.0" fill="#606163" transform="matrix(1.00, 0.00, -0.00, -1.00, 165.0, 588.3)">y</text><text xml:space="preserve" font-family="ArialMT,Arial" font-size="24.0" fill="#606163" transform="matrix(1.00, 0.00, -0.00, -1.00, 177.0, 588.3)">t</text><text xml:space="preserve" font-family="ArialMT,Arial" font-size="24.0" fill="#606163" transform="matrix(1.00, 0.00, -0.00, -1.00, 183.6, 588.3)">i</text><text xml:space="preserve" font-family="ArialMT,Arial" font-size="24.0" fill="#606163" transform="matrix(1.00, 0.00, -0.00, -1.00, 189.0, 588.3)">c</text><text xml:space="preserve" font-family="ArialMT,Arial" font-size="24.0" fill="#606163" transform="matrix(1.00, 0.00, -0.00, -1.00, 201.0, 588.3)">s</text><text xml:space="preserve" font-family="ArialMT,Arial" font-size="24.0" fill="#606163" transform="matrix(1.00, 0.00, -0.00, -1.00, 213.0, 588.3)"> </text><text xml:space="preserve" font-family="ArialMT,Arial" font-size="24.0" fill="#606163" transform="matrix(1.00, 0.00, -0.00, -1.00, 218.3, 588.3)">A</text><text xml:space="preserve" font-family="ArialMT,Arial" font-size="24.0" fill="#606163" transform="matrix(1.00, 0.00, -0.00, -1.00, 234.3, 588.3)">P</text><text xml:space="preserve" font-family="ArialMT,Arial" font-size="24.0" fill="#606163" transform="matrix(1.00, 0.00, -0.00, -1.00, 250.3, 588.3)">I</text><text xml:space="preserve" font-family="ArialMT,Arial" font-size="24.0" fill="#606163" transform="matrix(1.00, 0.00, -0.00, -1.00, 257.0, 588.3)"> </text><image xlink:href="../../FF7AB0DB-EDA1-43D3-8A4A-4930C070EBE5/assets/73B71C8ED8B327BC33250931A9406AA1.png" width="11.00" height="13.00" transform="matrix(1.65, 0.00, -0.00, -1.65, 48.7, 573.3)"></image><text xml:space="preserve" font-family="ArialMT,Arial" font-size="24.0" fill="#606163" transform="matrix(1.00, 0.00, -0.00, -1.00, 70.2, 554.3)">A</text><text xml:space="preserve" font-family="ArialMT,Arial" font-size="24.0" fill="#606163" transform="matrix(1.00, 0.00, -0.00, -1.00, 86.2, 554.3)">n</text><text xml:space="preserve" font-family="ArialMT,Arial" font-size="24.0" fill="#606163" transform="matrix(1.00, 0.00, -0.00, -1.00, 99.6, 554.3)">a</text><text xml:space="preserve" font-family="ArialMT,Arial" font-size="24.0" fill="#606163" transform="matrix(1.00, 0.00, -0.00, -1.00, 112.9, 554.3)">l</text><text xml:space="preserve" font-family="ArialMT,Arial" font-size="24.0" fill="#606163" transform="matrix(1.00, 0.00, -0.00, -1.00, 118.3, 554.3)">y</text><text xml:space="preserve" font-family="ArialMT,Arial" font-size="24.0" fill="#606163" transform="matrix(1.00, 0.00, -0.00, -1.00, 130.3, 554.3)">t</text><text xml:space="preserve" font-family="ArialMT,Arial" font-size="24.0" fill="#606163" transform="matrix(1.00, 0.00, -0.00, -1.00, 136.9, 554.3)">i</text><text xml:space="preserve" font-family="ArialMT,Arial" font-size="24.0" fill="#606163" transform="matrix(1.00, 0.00, -0.00, -1.00, 142.3, 554.3)">c</text><text xml:space="preserve" font-family="ArialMT,Arial" font-size="24.0" fill="#606163" transform="matrix(1.00, 0.00, -0.00, -1.00, 154.3, 554.3)">s</text><text xml:space="preserve" font-family="ArialMT,Arial" font-size="24.0" fill="#606163" transform="matrix(1.00, 0.00, -0.00, -1.00, 166.3, 554.3)"> </text><text xml:space="preserve" font-family="ArialMT,Arial" font-size="24.0" fill="#606163" transform="matrix(1.00, 0.00, -0.00, -1.00, 171.6, 554.3)">A</text><text xml:space="preserve" font-family="ArialMT,Arial" font-size="24.0" fill="#606163" transform="matrix(1.00, 0.00, -0.00, -1.00, 187.6, 554.3)">P</text><text xml:space="preserve" font-family="ArialMT,Arial" font-size="24.0" fill="#606163" transform="matrix(1.00, 0.00, -0.00, -1.00, 203.6, 554.3)">I</text><text xml:space="preserve" font-family="ArialMT,Arial" font-size="24.0" fill="#606163" transform="matrix(1.00, 0.00, -0.00, -1.00, 210.3, 554.3)"> </text><text xml:space="preserve" font-family="ArialMT,Arial" font-size="24.0" fill="#606163" transform="matrix(1.00, 0.00, -0.00, -1.00, 216.9, 554.3)">s</text><text xml:space="preserve" font-family="ArialMT,Arial" font-size="24.0" fill="#606163" transform="matrix(1.00, 0.00, -0.00, -1.00, 228.9, 554.3)">o</text><text xml:space="preserve" font-family="ArialMT,Arial" font-size="24.0" fill="#606163" transform="matrix(1.00, 0.00, -0.00, -1.00, 242.3, 554.3)">l</text><text xml:space="preserve" font-family="ArialMT,Arial" font-size="24.0" fill="#606163" transform="matrix(1.00, 0.00, -0.00, -1.00, 247.6, 554.3)">u</text><text xml:space="preserve" font-family="ArialMT,Arial" font-size="24.0" fill="#606163" transform="matrix(1.00, 0.00, -0.00, -1.00, 261.0, 554.3)">t</text><text xml:space="preserve" font-family="ArialMT,Arial" font-size="24.0" fill="#606163" transform="matrix(1.00, 0.00, -0.00, -1.00, 267.7, 554.3)">i</text><text xml:space="preserve" font-family="ArialMT,Arial" font-size="24.0" fill="#606163" transform="matrix(1.00, 0.00, -0.00, -1.00, 273.0, 554.3)">o</text><text xml:space="preserve" font-family="ArialMT,Arial" font-size="24.0" fill="#606163" transform="matrix(1.00, 0.00, -0.00, -1.00, 286.3, 554.3)">n</text><text xml:space="preserve" font-family="ArialMT,Arial" font-size="24.0" fill="#606163" transform="matrix(1.00, 0.00, -0.00, -1.00, 299.7, 554.3)">s</text></g></svg>