<?xml version="1.0" encoding="UTF-8" standalone="no"?><svg xmlns="http://www.w3.org/2000/svg" xmlns:xlink="http://www.w3.org/1999/xlink" clip-rule="evenodd" stroke-miterlimit="10" viewBox="0 0 1364 767"><desc>SVG generated by Keynote</desc><defs></defs><g transform="matrix(1.00, 0.00, -0.00, -1.00, 0.0, 767.0)"><g><clipPath id="clip0x7feae826f3b0"><path d="M 0.0 767.0 L 1364.0 767.0 L 1364.0 0.0 L 0.0 0.0 Z M 0.0 767.0 "></path></clipPath><g clip-path="url(#clip0x7feae826f3b0)"><image xlink:href="AF0C68BC92A376DA461E54F09C08CB42.png" width="1365.00" height="768.00" transform="matrix(1.00, 0.00, -0.00, -1.00, 0.0, 767.0)"></image></g></g><text xml:space="preserve" font-family="ArialMT,Arial" font-size="60.0" fill="#FFFFFF" transform="matrix(1.00, 0.00, -0.00, -1.00, 72.7, 371.3)">T</text><text xml:space="preserve" font-family="ArialMT,Arial" font-size="60.0" fill="#FFFFFF" transform="matrix(1.00, 0.00, -0.00, -1.00, 109.4, 371.3)">h</text><text xml:space="preserve" font-family="ArialMT,Arial" font-size="60.0" fill="#FFFFFF" transform="matrix(1.00, 0.00, -0.00, -1.00, 142.8, 371.3)">e</text><text xml:space="preserve" font-family="ArialMT,Arial" font-size="60.0" fill="#FFFFFF" transform="matrix(1.00, 0.00, -0.00, -1.00, 176.1, 371.3)"> </text><text xml:space="preserve" font-family="ArialMT,Arial" font-size="60.0" fill="#FFFFFF" transform="matrix(1.00, 0.00, -0.00, -1.00, 189.5, 371.3)">A</text><text xml:space="preserve" font-family="ArialMT,Arial" font-size="60.0" fill="#FFFFFF" transform="matrix(1.00, 0.00, -0.00, -1.00, 229.5, 371.3)">n</text><text xml:space="preserve" font-family="ArialMT,Arial" font-size="60.0" fill="#FFFFFF" transform="matrix(1.00, 0.00, -0.00, -1.00, 262.9, 371.3)">a</text><text xml:space="preserve" font-family="ArialMT,Arial" font-size="60.0" fill="#FFFFFF" transform="matrix(1.00, 0.00, -0.00, -1.00, 296.3, 371.3)">l</text><text xml:space="preserve" font-family="ArialMT,Arial" font-size="60.0" fill="#FFFFFF" transform="matrix(1.00, 0.00, -0.00, -1.00, 309.6, 371.3)">y</text><text xml:space="preserve" font-family="ArialMT,Arial" font-size="60.0" fill="#FFFFFF" transform="matrix(1.00, 0.00, -0.00, -1.00, 339.6, 371.3)">t</text><text xml:space="preserve" font-family="ArialMT,Arial" font-size="60.0" fill="#FFFFFF" transform="matrix(1.00, 0.00, -0.00, -1.00, 356.3, 371.3)">i</text><text xml:space="preserve" font-family="ArialMT,Arial" font-size="60.0" fill="#FFFFFF" transform="matrix(1.00, 0.00, -0.00, -1.00, 369.6, 371.3)">c</text><text xml:space="preserve" font-family="ArialMT,Arial" font-size="60.0" fill="#FFFFFF" transform="matrix(1.00, 0.00, -0.00, -1.00, 399.6, 371.3)">s</text><text xml:space="preserve" font-family="ArialMT,Arial" font-size="60.0" fill="#FFFFFF" transform="matrix(1.00, 0.00, -0.00, -1.00, 429.6, 371.3)"> </text><text xml:space="preserve" font-family="ArialMT,Arial" font-size="60.0" fill="#FFFFFF" transform="matrix(1.00, 0.00, -0.00, -1.00, 443.0, 371.3)">A</text><text xml:space="preserve" font-family="ArialMT,Arial" font-size="60.0" fill="#FFFFFF" transform="matrix(1.00, 0.00, -0.00, -1.00, 483.0, 371.3)">P</text><text xml:space="preserve" font-family="ArialMT,Arial" font-size="60.0" fill="#FFFFFF" transform="matrix(1.00, 0.00, -0.00, -1.00, 523.0, 371.3)">I</text></g></svg>